<svg width="25" height="24" viewBox="0 0 25 24" fill="none" xmlns="http://www.w3.org/2000/svg">
<path d="M23.203 7.20313C21.6405 2.98438 18.828 0.015625 16.328 0.015625C15.9374 0.015625 15.6249 0.09375 15.3124 0.171875C14.6093 0.40625 13.9843 0.953125 13.5936 1.65625C8.90614 6.96875 2.42177 9.39063 2.34364 9.39063C0.781143 9.9375 0.312393 12.4375 1.32802 15.1719C2.18739 17.5156 3.74989 19 5.15614 19C5.31239 19 5.54677 19 5.70302 18.9219C5.85927 18.8438 6.71864 18.6875 8.28114 18.4531L9.84364 21.7344C9.92177 21.8906 10.078 22.0469 10.3124 22.125L12.8124 22.9844C12.8905 22.9844 12.9686 23.0625 13.0468 23.0625C13.203 23.0625 13.3593 22.9844 13.5155 22.9063C13.7499 22.75 13.828 22.4375 13.828 22.2031L13.2811 17.75C15.2343 17.5938 17.4218 17.5156 19.6093 17.6719H19.7655C20.078 17.75 20.3905 17.8281 20.703 17.8281C21.0936 17.8281 21.4061 17.75 21.7186 17.6719C23.0468 17.2031 23.9843 15.7188 24.2186 13.6094C24.3749 11.7344 24.0624 9.39063 23.203 7.20313ZM11.0936 20.7188L9.92177 18.1406L11.7186 17.9063L12.1093 21.0313L11.0936 20.7188ZM16.7186 13.2188C16.1718 12.3594 15.6249 11.3438 15.1561 10.0938C14.7655 8.92188 14.453 7.82812 14.3749 6.73438C14.6093 6.73438 14.9218 6.96875 15.2343 7.20313C15.7811 7.75 16.328 8.60938 16.6405 9.54688C17.2655 11.3438 17.1093 12.75 16.7186 13.2188ZM5.31239 17.4375C5.23427 17.4375 5.23427 17.4375 5.23427 17.4375C4.68739 17.5938 3.51552 16.5781 2.73427 14.625C2.03114 12.6719 2.34364 11.0313 2.81239 10.875C3.04677 10.7969 8.12489 8.92188 12.7343 4.70313C12.6561 6.5 12.9686 8.60938 13.6718 10.6406C14.5311 12.9063 15.703 14.7813 17.0311 16.1094C10.9374 16.0313 5.54677 17.3594 5.31239 17.4375ZM22.578 13.4531C22.4218 14.9375 21.8749 15.875 21.0936 16.1875C20.9374 16.2656 20.7811 16.2656 20.6249 16.2656C19.7655 16.2656 18.7499 15.6406 17.6561 14.3906C18.7499 13.4531 18.9843 11.3438 18.1249 9C17.6561 7.82813 17.0311 6.8125 16.328 6.10938C15.703 5.48438 14.9999 5.17188 14.2968 5.17188C14.2968 4.85938 14.2968 4.625 14.3749 4.39063C14.5311 2.90625 15.078 1.96875 15.8593 1.65625C16.0155 1.57813 16.1718 1.57813 16.328 1.57813C17.8905 1.57813 20.3124 3.92188 21.7186 7.75C22.4999 9.70312 22.8124 11.8125 22.578 13.4531Z" fill="white"/>
</svg>
